<?xml version="1.0" encoding="utf-8"?>
<!-- Generator: Adobe Illustrator 28.0.0, SVG Export Plug-In . SVG Version: 6.00 Build 0)  -->
<svg version="1.1" xmlns="http://www.w3.org/2000/svg" xmlns:xlink="http://www.w3.org/1999/xlink" 
	 viewBox="0 0 125 125" style="enable-background:new 0 0 125 125;" xml:space="preserve">
<style type="text/css">
	.st0{fill:#9D60F4;}
</style>
<g class="svgColor">
	<path id="st0" d="M116.8,103.5c-0.8-6.8-3.1-13-6.6-18.2c-1.2-0.3-2.4-0.7-3.5-1.1c-7.8-3.1-22.4-4.6-37-0.3
		c-16.1,4.5-28.5,18.9-28.7,38.5h77C118,116.3,117.5,109.7,116.8,103.5z"/>
</g>
<g class="Outline">
	<path d="M118.5,103.3c-2.3-16.3-14.8-29.4-31-32.4c-2.8-0.7-4.9-1.4-6.6-2.1C79,68,77.5,67,76.4,65.9c-0.8-0.8-1.8-5.4-2.1-12.5
		c4.4-3.5,7.3-9,7.3-14.9v-14c0-5-2-9.8-5.6-13.5c-3.6-3.6-8.4-5.5-13.4-5.5c-10.5,0-19,8.5-19,19v14c0,5.8,2.7,11.3,7.2,14.9
		c-0.3,7.1-1.3,11.7-2.1,12.5C47.5,67,46,68,44.1,68.8c-1.7,0.8-3.8,1.4-6.5,2.1C21.3,74,8.8,87,6.5,103.3c-1,7-1.5,13.5-1.5,19.2
		c0,0.8,0.7,1.5,1.5,1.5s1.5-0.7,1.5-1.5c0-5.5,0.5-11.8,1.5-18.7c2.1-15.1,13.7-27.1,28.8-29.9c2.2-0.5,4-1.1,5.5-1.7
		c2,4,9.5,6.9,18.7,6.9c9.2,0,16.7-2.8,18.7-6.9c1.5,0.6,3.4,1.1,5.6,1.7c15,2.8,26.6,14.8,28.7,29.9c1,6.9,1.5,13.2,1.5,18.7
		c0,0.8,0.7,1.5,1.5,1.5s1.5-0.7,1.5-1.5C120,116.8,119.5,110.4,118.5,103.3z M62.5,76c-8.3,0-14.6-2.5-16-5.1
		c1.7-0.8,3.1-1.8,4.2-2.9c2.3-2.2,2.9-10.6,3-15.3c0-0.1,0-0.2,0-0.3c0,0,0-0.1,0-0.1c0,0,0-0.1,0-0.1c0,0,0-0.1-0.1-0.1
		c0,0,0-0.1-0.1-0.1c0,0-0.1-0.1-0.1-0.1c0,0-0.1-0.1-0.1-0.1c-0.1-0.1-0.1-0.1-0.2-0.2c0,0,0,0,0,0c-4.2-3-6.7-7.9-6.7-13v-14
		c0-8.8,7.2-16,16-16c4.3,0,8.3,1.7,11.3,4.7c3,3.1,4.7,7.1,4.7,11.3v14c0,7.5-5.3,14.1-12.6,15.7c-0.8,0.2-1.3,1-1.2,1.8
		c0.1,0.7,0.8,1.2,1.5,1.2c0.1,0,0.2,0,0.3,0c1.7-0.4,3.3-1,4.8-1.8c0.3,5.3,1.1,11,2.9,12.8c1.1,1.1,2.5,2.1,4.2,2.9
		C77.1,73.5,70.8,76,62.5,76z"/>
</g>
</svg>
