<svg xmlns="http://www.w3.org/2000/svg" viewBox="0 0 512 512"><path d="M334.1 48v92.8H50V48H334.1M345.8 0H38.2C18.2 .1 2.1 16.2 2 36.2v116.4c.1 20 16.2 36.1 36.2 36.2h307.7c20-.1 36.1-16.2 36.2-36.2V36.2C382 16.2 365.8 .1 345.8 0l0 0zm-37 96.4c0-8.3-6.7-15-15-15H86.2c-8.3 0-11 6.7-11 15s2.7 15 11 15h207.6c8.3 0 15-6.7 15-15zM462 371.2V464H177.9v-92.8H462m11.7-48H166.1c-20 .1-36.1 16.2-36.2 36.2v116.4c.1 20 16.2 36.1 36.2 36.2h307.7c20-.1 36.1-16.2 36.2-36.2V359.4c-.1-20-16.3-36.1-36.3-36.2l0 0zm-37 96.4c0-8.3-6.7-15-15-15H218.1c-8.3 0-15 6.7-15 15s6.7 15 15 15h203.6c8.3 0 15-6.7 15-15zM487 240.7V175c0-36.6-29.4-66.4-65.8-67c-13.1-.2-24.8 10.1-25.2 23.3c-.4 13.6 10.4 24.7 23.9 24.7c10.5 0 19.1 8.5 19.1 19v65.7h-17.4c-6.2 0-9.4 7.5-4.9 12l41.4 41.4c2.7 2.7 7.2 2.7 9.9 0l41.4-41.4c4.4-4.4 1.3-12-4.9-12l-17.5 0 0 0z"/></svg>