<svg xmlns="http://www.w3.org/2000/svg" viewBox="0 0 512 512"><path d="M463.5 48.5v415h-415v-415h415m28-48h-471c-11 0-20 9-20 20v471c0 11 9 20 20 20h471c11 0 20-9 20-20v-471c0-11-9-20-20-20l0 0zm-77 424.3c12.7 0 23-10.3 23-23s-10.3-23-23-23h-317c-12.7 0-23 10.3-23 23s10.3 23 23 23h317zm0-97.2c12.7 0 23-10.3 23-23s-10.3-23-23-23h-317c-12.7 0-23 10.3-23 23s10.3 23 23 23h317zm0-97.2c12.7 0 23-10.3 23-23s-10.3-23-23-23h-317c-12.7 0-23 10.3-23 23s10.3 23 23 23h317zm0-97.2c12.7 0 23-10.3 23-23s-10.3-23-23-23h-317c-12.7 0-23 10.3-23 23s10.3 23 23 23h317z"/></svg>