<svg xmlns="http://www.w3.org/2000/svg" viewBox="0 0 512 512"><path d="M118.2 431.5c-5.5 0-10.8-2.4-14.3-6.5c-3.4-3.9-5.2-9-5.4-14.9c-6.5-1.5-14.5-3.9-20.9-6.8c-.1 0-.1-.1-.2-.1c-8-3.3-12.3-11.8-10.6-20.8c1.7-9.4 8.9-16.1 17.6-16.3c.1 0 .1 0 .2 0c.7 0 1.3 .1 2 .2c3.5 .7 7 1.8 10.7 2.9l2.4 .7c6.9 2.1 13.5 4.1 20.1 4.1h1.5c2.5 0 8.1-.3 9.8-2.8c-2.1-1.6-8.4-3.2-11.6-4.1c-.2-.1-.4-.1-.6-.2c-1.5-.5-3.1-.9-4.8-1.4c-1-.3-2-.6-3-.9c-14.7-4-33-9.1-41.7-26.7c-5.1-10.6-4.8-22.3 .8-33c5.8-10.9 16.3-19.1 28.1-22.2c.3-7.4 3.1-12.1 5.7-14.9c0 0 .1-.1 .1-.1c3.6-3.8 8.5-5.9 13.7-5.9c5.4 0 10.6 2.3 14.3 6.4c3.4 3.9 5.3 9 5.5 14.9c3.7 .6 7.2 1.3 9.7 1.9c9.4 2.1 14.9 10 14.2 20.3c0 .2 0 .4-.1 .5c-1 8.4-7.2 17.4-18.2 17.4c-.4 0-.9 0-1.3-.1c-2.9-.4-5.7-.9-9.6-1.6l-.6-.1c-4.9-.9-10-1.8-14.5-1.8h-1c-2.3 .1-6.4 .2-9.2 1.4c-.9 .4-1.4 .7-1.6 1c2.7 1.9 9.6 3.7 13.6 4.7c.1 0 .1 0 .2 .1c.7 .2 1.3 .4 2 .5c1.7 .5 3.3 .9 4.8 1.4l.1 0c18.9 3.5 35.1 14.5 41.5 28.2c3.4 7.5 5.7 19.4-3 33.9c0 0-.1 .1-.1 .2c-5.8 9.4-15.8 16.7-26.8 19.7c-.3 5.9-2.2 10.9-5.6 14.6c-3.7 4-8.7 6.2-13.9 6.2zM425.1 48.3c2.8 0 8.2 .7 12.9 5.1c7.9 7.4 7.8 19.9 .1 27.5L264.3 254.7s0 0-.1 0l-32.5 6c-.1 0-.2-.1-.1-.1l6-32.5s0 0 0-.1L411.7 53.9c4.9-4.9 10.5-5.6 13.4-5.6m0-48c-17.1 0-34.2 6.5-47.3 19.6L193.1 204.6s0 0 0 .1l-21.2 115.6c0 .1 115.8-21 115.8-21.1l184.7-184.7c26.1-26.1 26.1-68.5 0-94.6C459.3 6.8 442.2 .3 425.1 .3l0 0zM400.2 431.5H240.6c-13.3 0-24-10.7-24-24s10.7-24 24-24h159.6c13.3 0 24 10.7 24 24s-10.7 24-24 24zm0-68.4h-99.6c-13.3 0-24-10.7-24-24s10.7-24 24-24h99.6c13.3 0 24 10.7 24 24s-10.7 24-24 24zM461 184h-21.9c-13.1 0-23.7 10.5-24 23.5c-.3 13.5 11.1 24.5 24.5 24.5H461c1.1 0 2 .9 2 2v224c0 1.1-.9 2-2 2H50c-1.1 0-2-.9-2-2V234c0-1.1 .9-2 2-2h101.4c13.5 0 24.8-11 24.5-24.5c-.2-13-10.9-23.5-24-23.5H50c-27.5 0-50 22.5-50 50v224c0 27.5 22.5 50 50 50h411c27.5 0 50-22.5 50-50V234c0-27.5-22.5-50-50-50zm-49.9 24l0 0"/></svg>